# xmcd
#
# Track frame offsets: 
#        150
#        15813
#        34644
#        52423
#        71750
#        89042
#        102538
#        113010
#        136008
#        152451
#        168316
#
# Disc length: 2445 seconds
#
# Revision: 0
# Processed by: cddbd v1.5.2PL0 Copyright (c) Steve Scherf et al.
# Submitted via: ExactAudioCopy v0.95b4
#
DISCID=89098b0b
DTITLE=Nolan McKelvey and 33 - Modern Times
DYEAR=2006
DGENRE=Slow Rock
TTITLE0=The Man She Can't Stand
TTITLE1=Modern Times
TTITLE2=California
TTITLE3=Fourth of July
TTITLE4=Closing All the Honky Tonks Down
TTITLE5=Ain't No Grave
TTITLE6=Valentine
TTITLE7=Wasting Time
TTITLE8=Wildfire
TTITLE9=Weight of the World
TTITLE10=Mountainaire
EXTD=
EXTT0=
EXTT1=
EXTT2=
EXTT3=
EXTT4=
EXTT5=
EXTT6=
EXTT7=
EXTT8=
EXTT9=
EXTT10=
PLAYORDER=
